<svg xmlns="http://www.w3.org/2000/svg" xmlns:xlink="http://www.w3.org/1999/xlink" width="20" height="27" viewBox="0 0 20 27"><defs><path id="k1dma" d="M695.125 467.74v-2.496c0-2.122 1.75-3.869 3.875-3.869s3.875 1.747 3.875 3.869v2.496zm1.375 8.76c0-1.375 1.125-2.5 2.5-2.5s2.5 1.125 2.5 2.5-1.125 2.5-2.5 2.5a2.507 2.507 0 0 1-2.5-2.5zm8.75-8.75v-2.5c0-3.5-2.75-6.25-6.25-6.25s-6.25 2.75-6.25 6.25v2.5h-1.25a2.507 2.507 0 0 0-2.5 2.5v12.5c0 1.375 1.125 2.5 2.5 2.5h15c1.375 0 2.5-1.125 2.5-2.5v-12.5c0-1.375-1.125-2.5-2.5-2.5z"/></defs><g><g transform="translate(-689 -459)"><use fill="#ccc" xlink:href="#k1dma"/></g></g></svg>