<svg xmlns="http://www.w3.org/2000/svg" xmlns:xlink="http://www.w3.org/1999/xlink" width="196" height="58" viewBox="0 0 98 29"><defs><path id="b5b1b" d="M185.803 30.492c-.481-2.343-2.221-4.653-3.414-4.792-1.469.474-2.16 1.24-3.839 2.48-1.109.816-2 1.162-2 1.162s2.13 3.977 4.866 3.017c1.198-.419 2.178-2.763 4.387-1.867"/><path id="b5b1c" d="M189.043 33.482c2.035-3.941 5.45-5.922 5.45-5.922s-1.752-1.65-4.77-2.467c-3.629-.98-6.093.01-6.093.01s2.605 1.326 3.39 5.659c.46 2.54 1.901 2.72 2.023 2.72"/><path id="b5b1d" d="M184.262 15.165c-1.629-.091-3.403.061-5.327.54-5.537 1.386-11.039 7.276-7.74 11.852 3.003 3.942 7.578-1.401 10.724-3.002-1.225-3.147-.053-6.537 2.343-9.39"/><path id="b5b1e" d="M185.598 15.3c-2.366 2.626-3.604 5.771-2.639 8.813 6.775-2.531 12.354 2.579 12.354 2.579s1.353-3.505-1.323-6.848c-1.607-2.009-4.49-3.984-8.392-4.544"/><path id="b5b1f" d="M202.2 15.853c.814-.041 2.748-.103 4.203-.103 3.476 0 4.789 1.582 4.789 3.6 0 1.663-.835 2.726-2.08 3.308v.041c1.433.355 2.557 1.456 2.557 3.391 0 2.997-2.329 4.372-5.411 4.372-1.332 0-3.202-.043-4.058-.105zm2.561 2.352v3.692h1.725c1.187 0 2.166-.603 2.166-1.938 0-1.19-.915-1.816-2.291-1.816a19 19 0 0 0-1.6.062zm0 5.909v3.86c.354.042.955.103 1.685.103 1.727 0 2.666-.728 2.666-2.105 0-1.232-.939-1.858-2.541-1.858z"/><path id="b5b1g" d="M213.49 30.373V21.01h2.391v5.93l4.37-5.93h2.394v9.363h-2.394v-5.928l-4.37 5.928z"/><path id="b5b1h" d="M225.03 30.373h2.391V21.01h-2.391zm5.264-4.911l4.035 4.911h-3.118l-3.708-4.723 3.373-4.64h3.018z"/><path id="b5b1i" d="M235.46 30.373V21.01h2.39v5.93l4.374-5.93h2.391v9.363h-2.391v-5.928l-4.374 5.928z"/><path id="b5b1j" d="M252.338 30.373c-1.373 3.352-2.249 4.162-3.621 4.162-.853 0-1.477-.334-2.02-.726l.771-1.813c.249.146.604.334.977.334.603 0 1.039-.478 1.436-1.456l.208-.501-4.329-9.363h2.872l2.186 5.119c.189.458.314.895.457 1.354.083-.437.167-.896.333-1.375l1.687-5.098h2.726z"/><path id="b5b1k" d="M257.17 21.01h2.163l3.183 3.913 3.018-3.913h2.103v9.363h-2.396v-5.72l-2.764 3.495h-.064l-2.851-3.495v5.72h-2.392z"/><path id="b5b1l" d="M170.47 37.47h4.319v.601h-1.84v4.658h-.639v-4.658h-1.84z"/><path id="b5b1m" d="M176.03 42.734v-5.259c.292 0 1.044-.015 1.374-.015 1.502 0 1.946.811 1.946 1.63 0 .856-.609 1.653-1.893 1.653-.211 0-.526-.008-.789-.031v2.022zm.638-4.658v2.027c.254.024.5.039.763.039.77 0 1.233-.398 1.233-1.059 0-.624-.374-1.022-1.204-1.022-.209 0-.545.007-.792.015z"/><path id="b5b1n" d="M180.89 37.47h2.967v.601h-2.328v1.697h2.103v.601h-2.103v1.758h2.403v.602h-3.042z"/><path id="b5b1o" d="M189.11 40.347h-2.892v2.382h-.638V37.47h.638v2.275h2.892V37.47h.639v5.259h-.639z"/><path id="b5b1p" d="M193.281 37.44h.548l2.261 5.289h-.683l-.676-1.593h-2.396l-.669 1.593h-.646zm-.691 3.096h1.893l-.946-2.247z"/><path id="b5b1q" d="M196.722 37.47h.744l2.08 2.516-2.163 2.743h-.743l2.208-2.743zm2.952 0h.639v5.259h-.639zm1.47 2.509l2.2 2.75h-.74l-2.156-2.743 2.074-2.516h.74z"/><path id="b5b1r" d="M204.67 37.47h2.967v.601h-2.328v1.697h2.103v.601h-2.103v1.758h2.403v.602h-3.042z"/><path id="b5b1s" d="M209.36 42.734v-5.259c.293 0 1.044-.015 1.374-.015 1.503 0 1.946.811 1.946 1.63 0 .856-.609 1.653-1.892 1.653-.211 0-.526-.008-.789-.031v2.022zm.639-4.658v2.027c.255.024.503.039.766.039.774 0 1.239-.398 1.239-1.059 0-.624-.376-1.022-1.21-1.022-.21 0-.547.007-.795.015z"/><path id="b5b1a" d="M170 43.709h98.07V15H170z"/><path id="b5b1u" d="M214.858 39.422c.286-.022.526-.037.699-.037 1.321 0 1.945.63 1.945 1.623 0 1.104-.781 1.735-2.087 1.735-.452 0-.888-.015-1.195-.015V37.47h.638zm0 2.686c.203.008.391.022.631.022.864 0 1.337-.373 1.337-1.11 0-.665-.466-1.03-1.314-1.03-.173 0-.391.016-.654.044zm3.493-4.638h.639v5.259h-.639z"/><path id="b5b1v" d="M222.33 42.127h.564c.217-.271.751-1.404.863-3.605l.053-1.052h3.095v4.657h.714v1.577h-.602v-.975h-4.085v.975h-.602zm1.27-.003h2.666v-4.053h-1.84l-.067.94c-.128 1.807-.564 2.874-.759 3.113z"/><path id="b5b1w" d="M232.198 38.071h-1.908l-.09.992c-.308 3.343-1.014 3.772-1.84 3.666l.007-.639c.376.038 1.007-.151 1.247-3.568l.075-1.052h3.148v5.259h-.639z"/><path id="b5b1x" d="M237.254 40.779h-.983l-1.36 1.953h-.721l1.457-2.067c-.541-.218-1.037-.721-1.037-1.472 0-.947.631-1.743 2.051-1.743.353 0 .925.023 1.232.023v5.259h-.639zm-.01-.603v-2.103c-.171-.007-.484-.022-.71-.022-.814 0-1.247.48-1.247 1.104 0 .556.448.946.903 1.021z"/><path id="b5b1y" d="M241.91 37.47h.646l1.975 2.696 1.893-2.696h.608v5.259h-.639v-4.252l-1.862 2.613h-.098l-1.885-2.592v4.231h-.638z"/><path id="b5b1z" d="M251.252 37.4c1.524 0 2.682 1.104 2.682 2.704 0 1.562-1.158 2.705-2.682 2.705-1.525 0-2.682-1.105-2.682-2.705 0-1.525 1.12-2.704 2.682-2.704m0 4.808c1.202 0 2.005-.916 2.005-2.104 0-1.224-.879-2.103-2.005-2.103-1.142 0-2.005.879-2.005 2.103 0 1.194.879 2.104 2.005 2.104"/><path id="b5b1A" d="M254.98 41.982l.353-.428c.337.399.9.654 1.329.654.683 0 1.194-.354 1.194-1.007 0-.519-.375-.858-1.028-.858h-.609v-.599h.563a.88.88 0 0 0 .871-.888c0-.569-.413-.855-.953-.855-.518 0-.88.21-1.195.585l-.375-.42c.352-.458.954-.766 1.638-.766.908 0 1.524.503 1.524 1.397 0 .443-.248.939-.758 1.202v.022c.638.121.961.639.961 1.24 0 .969-.833 1.547-1.795 1.547-.804 0-1.442-.405-1.72-.826"/><path id="b5b1B" d="M260.19 37.47h2.929v.601h-2.291v4.658h-.638z"/><path id="b5b1C" d="M265.261 37.44h.548l2.261 5.289h-.683l-.676-1.593h-2.396l-.669 1.593H263zm-.691 3.096h1.894l-.947-2.247z"/><clipPath id="b5b1t"><use xlink:href="#b5b1a"/></clipPath></defs><g><g transform="translate(-170 -15)"><g><g><use fill="#23b175" xlink:href="#b5b1b"/></g><g><use fill="#ec5956" xlink:href="#b5b1c"/></g><g><use fill="#27a8e0" xlink:href="#b5b1d"/></g><g><use fill="#faad40" xlink:href="#b5b1e"/></g></g><g><g><use fill="#fff" xlink:href="#b5b1f"/></g><g><use fill="#fff" xlink:href="#b5b1g"/></g><g><use fill="#fff" xlink:href="#b5b1h"/></g><g><use fill="#fff" xlink:href="#b5b1i"/></g><g><use fill="#fff" xlink:href="#b5b1j"/></g><g><use fill="#fff" xlink:href="#b5b1k"/></g><g><use fill="#fff" xlink:href="#b5b1l"/></g><g><use fill="#fff" xlink:href="#b5b1m"/></g><g><use fill="#fff" xlink:href="#b5b1n"/></g><g><use fill="#fff" xlink:href="#b5b1o"/></g><g><use fill="#fff" xlink:href="#b5b1p"/></g><g><use fill="#fff" xlink:href="#b5b1q"/></g><g><use fill="#fff" xlink:href="#b5b1r"/></g><g><use fill="#fff" xlink:href="#b5b1s"/></g><g/><g clip-path="url(#b5b1t)"><use fill="#fff" xlink:href="#b5b1u"/></g><g clip-path="url(#b5b1t)"><use fill="#fff" xlink:href="#b5b1v"/></g><g clip-path="url(#b5b1t)"><use fill="#fff" xlink:href="#b5b1w"/></g><g clip-path="url(#b5b1t)"><use fill="#fff" xlink:href="#b5b1x"/></g><g clip-path="url(#b5b1t)"><use fill="#fff" xlink:href="#b5b1y"/></g><g clip-path="url(#b5b1t)"><use fill="#fff" xlink:href="#b5b1z"/></g><g clip-path="url(#b5b1t)"><use fill="#fff" xlink:href="#b5b1A"/></g><g clip-path="url(#b5b1t)"><use fill="#fff" xlink:href="#b5b1B"/></g><g clip-path="url(#b5b1t)"><use fill="#fff" xlink:href="#b5b1C"/></g></g></g></g></svg>